<?xml version="1.0" standalone="no"?>
<!DOCTYPE svg PUBLIC "-//W3C//DTD SVG 20010904//EN"
 "http://www.w3.org/TR/2001/REC-SVG-20010904/DTD/svg10.dtd">
<svg version="1.0" xmlns="http://www.w3.org/2000/svg"
 width="512.000000pt" height="512.000000pt" viewBox="0 0 512.000000 512.000000"
 preserveAspectRatio="xMidYMid meet">

<g transform="translate(0.000000,512.000000) scale(0.100000,-0.100000)"
fill="#000000" stroke="none">
<path d="M1232 3919 c-26 -13 -55 -39 -70 -62 l-27 -41 0 -496 0 -496 27 -41
c16 -24 44 -49 70 -62 43 -20 56 -21 521 -21 383 0 484 3 510 14 39 16 82 61
96 99 7 19 11 194 11 510 0 540 2 521 -73 581 l-39 31 -491 3 c-487 2 -492 2
-535 -19z m948 -599 l0 -420 -425 0 -425 0 0 420 0 420 425 0 425 0 0 -420z"/>
<path d="M3343 3863 c-12 -2 -34 -18 -48 -34 -25 -30 -25 -32 -25 -220 l0
-189 -191 0 -191 0 -34 -34 c-24 -24 -34 -43 -34 -66 0 -23 10 -41 34 -66 l34
-34 191 0 191 0 0 -190 0 -190 29 -32 c51 -57 140 -36 160 39 6 21 11 113 11
206 l0 167 180 0 c191 0 227 7 250 49 13 25 13 77 0 102 -23 42 -59 49 -250
49 l-180 0 0 175 c0 204 -8 237 -64 260 -20 8 -37 14 -38 14 -2 -1 -13 -4 -25
-6z"/>
<path d="M1232 2399 c-26 -13 -55 -39 -70 -62 l-27 -41 0 -496 0 -496 27 -41
c16 -24 44 -49 70 -62 43 -20 56 -21 521 -21 383 0 484 3 510 14 39 16 82 61
96 99 7 19 11 194 11 510 0 540 2 521 -73 581 l-39 31 -491 3 c-487 2 -492 2
-535 -19z m948 -599 l0 -420 -425 0 -425 0 0 420 0 420 425 0 425 0 0 -420z"/>
<path d="M2855 2404 c-44 -22 -76 -55 -91 -91 -21 -48 -20 -992 0 -1031 19
-36 65 -78 99 -91 19 -7 192 -11 504 -11 465 0 478 1 521 21 26 13 54 38 70
62 l27 41 0 496 0 496 -27 41 c-16 24 -44 49 -70 62 -43 21 -56 21 -524 21
-414 0 -483 -2 -509 -16z m935 -604 l0 -420 -425 0 -425 0 0 420 0 420 425 0
425 0 0 -420z"/>
</g>
</svg>
