<?xml version="1.0" standalone="no"?>
<!DOCTYPE svg PUBLIC "-//W3C//DTD SVG 20010904//EN"
 "http://www.w3.org/TR/2001/REC-SVG-20010904/DTD/svg10.dtd">
<svg version="1.0" xmlns="http://www.w3.org/2000/svg"
 width="512.000000pt" height="512.000000pt" viewBox="0 0 512.000000 512.000000"
 preserveAspectRatio="xMidYMid meet">

<g transform="translate(0.000000,512.000000) scale(0.100000,-0.100000)"
fill="#000000" stroke="none">
<path d="M3029 4241 c-85 -47 -58 17 -674 -1589 -611 -1592 -605 -1575 -573
-1652 38 -90 113 -139 211 -140 82 0 157 43 192 110 7 14 272 702 589 1528
441 1150 576 1512 576 1545 0 62 -44 144 -98 182 -37 25 -54 30 -115 32 -56 3
-80 -1 -108 -16z"/>
<path d="M1075 3581 c-56 -27 -909 -882 -930 -933 -23 -56 -19 -126 10 -184
18 -37 131 -156 457 -481 426 -424 434 -431 491 -448 65 -19 109 -15 168 16
68 34 119 118 119 194 0 85 -7 93 -374 462 l-350 353 341 342 c187 189 349
359 359 378 12 23 18 57 19 101 0 56 -4 73 -30 114 -57 93 -183 131 -280 86z"/>
<path d="M3849 3572 c-77 -40 -114 -102 -114 -191 1 -44 7 -78 19 -101 10 -19
172 -189 359 -378 l341 -342 -350 -353 c-367 -369 -374 -377 -374 -462 0 -76
51 -160 119 -194 59 -31 103 -35 168 -16 57 17 65 24 491 448 326 325 439 444
457 481 29 58 33 128 10 184 -22 51 -874 907 -930 933 -60 28 -132 25 -196 -9z"/>
</g>
</svg>
